<svg xmlns="http://www.w3.org/2000/svg" width="127" height="119" viewBox="0 0 127 119" fill="none"><path fill-rule="evenodd" clip-rule="evenodd" d="M62.3001 0.342616C82.5602 1.68238 100.847 12.0969 112.927 28.3962C124.457 43.9551 131.85 65.2574 123.273 82.6158C115.659 98.0257 93.3424 93.5447 77.4644 100.165C63.6217 105.937 52.5092 123.464 38.5669 117.936C24.4044 112.321 26.8765 92.2662 21.5651 78.0027C14.2201 58.278 -7.27254 39.7359 2.50552 21.0943C12.8071 1.45473 40.1487 -1.12221 62.3001 0.342616Z" fill="#03CB8F"></path><path d="M58.7614 41.72L66.0574 41.768H70.5694C71.3374 41.768 71.8974 41.8 72.2494 41.864C72.6014 41.896 73.0174 42.04 73.4974 42.296C74.3614 42.744 74.7934 44.024 74.7934 46.136C74.7934 48.056 74.3934 49.224 73.5934 49.64C73.1454 49.896 72.7454 50.056 72.3934 50.12C72.0734 50.152 71.5614 50.168 70.8574 50.168H62.4574C62.3934 50.552 62.2334 51.768 61.9774 53.816C62.3294 53.752 62.8894 53.72 63.6574 53.72C66.6974 53.72 69.4334 54.872 71.8654 57.176C74.2974 59.448 75.5134 62.248 75.5134 65.576C75.5134 68.872 74.3614 71.72 72.0574 74.12C69.7534 76.488 66.8894 77.672 63.4654 77.672C60.4894 77.672 57.8014 76.92 55.4014 75.416C54.8574 75.064 54.4574 74.76 54.2014 74.504L53.8174 74.168C52.6014 73.112 51.9934 72.152 51.9934 71.288C51.9934 70.424 52.5854 69.384 53.7694 68.168C54.7294 67.112 55.6574 66.584 56.5534 66.584C57.4494 66.584 58.5214 67.096 59.7694 68.12C60.3454 68.792 61.3374 69.128 62.7454 69.128C64.1854 69.128 65.2414 68.824 65.9134 68.216C66.6174 67.608 66.9694 66.776 66.9694 65.72C66.9694 64.632 66.5854 63.784 65.8174 63.176C65.0814 62.536 64.2334 62.216 63.2734 62.216C62.3134 62.216 61.5454 62.504 60.9694 63.08C60.1054 63.816 59.2254 64.184 58.3294 64.184C57.4654 64.184 56.4574 63.88 55.3054 63.272C54.1854 62.664 53.4494 62.184 53.0974 61.832C52.7454 61.448 52.5694 61.048 52.5694 60.632C52.5694 60.216 52.8894 57.64 53.5294 52.904C54.1694 48.168 54.5054 45.704 54.5374 45.512C54.5694 45.32 54.6814 44.984 54.8734 44.504C55.0654 44.024 55.2894 43.592 55.5454 43.208C55.8334 42.824 56.2494 42.488 56.7934 42.2C57.3694 41.88 58.0254 41.72 58.7614 41.72Z" fill="white"></path></svg>