<svg xmlns="http://www.w3.org/2000/svg" width="145" height="131" viewBox="0 0 145 131" fill="none"><path fill-rule="evenodd" clip-rule="evenodd" d="M143.917 53.7552C147.235 77.9211 143.493 104.906 124.789 120.648C106.729 135.848 80.7801 131.129 57.6261 126.381C36.4757 122.044 13.5402 115.306 4.18415 95.9163C-4.6879 77.5301 1.25372 53.5962 15.3732 38.8174C26.3735 27.3034 46.0778 42.7402 60.8124 36.6438C80.1852 28.6283 87.737 -3.85133 108.278 0.378097C130.378 4.92851 140.859 31.4787 143.917 53.7552Z" fill="#0E9AFF"></path><path d="M80.7769 59.968C81.0329 59.52 81.4649 59.216 82.0729 59.056C82.7129 58.864 83.5289 58.768 84.5209 58.768C85.5449 58.768 86.3609 58.88 86.9689 59.104C87.5769 59.296 88.0089 59.632 88.2649 60.112C88.5209 60.56 88.6649 60.976 88.6969 61.36C88.7609 61.744 88.7929 62.304 88.7929 63.04V89.728C88.7929 90.976 88.6329 91.904 88.3129 92.512C88.0249 93.088 87.5609 93.472 86.9209 93.664C86.3129 93.856 85.5449 93.952 84.6169 93.952C83.6889 93.952 82.9529 93.872 82.4089 93.712C81.8649 93.552 81.4489 93.36 81.1609 93.136C80.8729 92.912 80.6649 92.592 80.5369 92.176C80.3449 91.632 80.2489 90.8 80.2489 89.68V83.824H67.2409C65.0009 83.824 63.6729 83.216 63.2569 82C63.0969 81.488 63.0169 80.8 63.0169 79.936C63.0169 79.072 63.0649 78.432 63.1609 78.016L67.1449 61.936C67.3369 61.2 67.4969 60.64 67.6249 60.256C67.7849 59.872 68.0729 59.504 68.4889 59.152C68.9369 58.8 69.4969 58.624 70.1689 58.624C70.8409 58.624 71.5769 58.736 72.3769 58.96C74.6169 59.568 75.7369 60.592 75.7369 62.032C75.7369 62.544 75.6249 63.216 75.4009 64.048C75.3689 64.112 75.3529 64.16 75.3529 64.192L72.4249 75.904H80.2489V62.8C80.2489 62.064 80.2649 61.52 80.2969 61.168C80.3609 60.816 80.5209 60.416 80.7769 59.968Z" fill="white"></path></svg>