<svg xmlns="http://www.w3.org/2000/svg" width="142" height="125" viewBox="0 0 142 125" fill="none"><path fill-rule="evenodd" clip-rule="evenodd" d="M94.1724 0.97762C120.45 4.13391 126.704 32.9904 134.265 56.7014C140.956 77.6828 149.116 102.286 130.861 116.021C110.606 131.26 82.4675 125.13 60.3923 112.283C30.1806 94.7012 -8.17242 72.741 1.53399 40.7584C11.7797 6.99882 56.9032 -3.49898 94.1724 0.97762Z" fill="#C61FA1"></path><path d="M87.7503 68.248C87.7503 71.48 86.5823 74.184 84.2463 76.36C81.9423 78.536 79.1423 79.624 75.8463 79.624C71.6863 79.624 68.5503 78.296 66.4383 75.64C64.3263 72.952 63.2703 69.496 63.2703 65.272C63.2703 59.16 64.9983 54.056 68.4543 49.96C71.9423 45.864 76.6943 43.816 82.7103 43.816C83.9263 43.816 84.8063 43.976 85.3503 44.296C85.9263 44.584 86.3103 45.032 86.5023 45.64C86.6943 46.248 86.7903 47.016 86.7903 47.944C86.7903 48.872 86.7103 49.608 86.5503 50.152C86.3903 50.696 86.1983 51.112 85.9743 51.4C85.7503 51.688 85.4303 51.896 85.0143 52.024C84.4703 52.216 83.5423 52.312 82.2303 52.312C80.9183 52.312 79.6383 52.536 78.3903 52.984C77.1743 53.432 76.2143 53.976 75.5103 54.616C74.1023 55.928 73.2383 57.112 72.9183 58.168L72.6783 58.84C73.8623 58.296 75.0463 58.024 76.2303 58.024C79.3983 58.024 82.1023 59.08 84.3423 61.192C86.6143 63.272 87.7503 65.624 87.7503 68.248ZM75.6543 71.752C78.1183 71.752 79.3503 70.68 79.3503 68.536C79.3503 67.8 79.0623 67.112 78.4863 66.472C77.9423 65.832 77.0463 65.512 75.7983 65.512C74.5823 65.512 73.6383 65.816 72.9663 66.424C72.3263 67 72.0063 67.592 72.0063 68.2C72.0063 68.808 72.0383 69.272 72.1023 69.592C72.1983 69.912 72.3583 70.264 72.5823 70.648C73.0303 71.384 74.0543 71.752 75.6543 71.752Z" fill="white"></path></svg>