<svg xmlns="http://www.w3.org/2000/svg" width="120" height="108" viewBox="0 0 120 108" fill="none"><path fill-rule="evenodd" clip-rule="evenodd" d="M74.542 0C106.404 0 120 35.9228 120 67.8154C120 91.5225 98.2263 108 74.542 108C41.4782 108 0 100.911 0 67.8154C0 28.4398 35.2044 0 74.542 0Z" fill="#FE4848"></path><path d="M57.6906 38.016C58.5226 37.184 59.4186 36.768 60.3786 36.768C61.3706 36.768 62.1386 36.848 62.6826 37.008C63.2266 37.168 63.6426 37.36 63.9306 37.584C64.2186 37.776 64.4426 38.112 64.6026 38.592C64.7626 39.136 64.8426 39.984 64.8426 41.136V67.872C64.8426 68.608 64.8106 69.168 64.7466 69.552C64.7146 69.904 64.5706 70.32 64.3146 70.8C63.8666 71.664 62.6186 72.096 60.5706 72.096C58.5866 72.096 57.3546 71.68 56.8746 70.848C56.6186 70.368 56.4586 69.936 56.3946 69.552C56.3626 69.136 56.3466 68.544 56.3466 67.776V50.64L55.7226 51.216C54.4106 52.208 53.2906 52.704 52.3626 52.704C51.4346 52.704 50.4586 52.144 49.4346 51.024C48.4426 49.904 47.9466 48.912 47.9466 48.048C47.9466 47.184 48.5226 46.24 49.6746 45.216L57.5466 38.112L57.6906 38.016Z" fill="white"></path></svg>