<svg xmlns="http://www.w3.org/2000/svg" width="102" height="109" viewBox="0 0 102 109" fill="none"><path fill-rule="evenodd" clip-rule="evenodd" d="M70.7235 0C95.9222 0 102 31.2025 102 56.3712C102 80.2721 94.6529 109 70.7235 109C36.2815 109 0 90.7722 0 56.3712C0 21.0776 35.3878 0 70.7235 0Z" fill="#9CC624"></path><path d="M54.8944 36.288C58.8304 36.288 61.9344 37.408 64.2064 39.648C66.4784 41.888 67.6144 44.416 67.6144 47.232C67.6144 50.016 66.3664 52.032 63.8704 53.28V53.616C64.1904 53.776 64.6544 54.128 65.2624 54.672C65.9024 55.184 66.4144 55.696 66.7984 56.208C67.8544 57.552 68.3824 59.088 68.3824 60.816C68.3824 64.24 67.1024 67.072 64.5424 69.312C61.9824 71.52 58.7664 72.624 54.8944 72.624C51.0544 72.624 47.8544 71.504 45.2944 69.264C44.3344 68.4 43.4864 67.264 42.7504 65.856C42.4944 65.344 42.3184 64.928 42.2224 64.608L42.1264 64.128C41.7744 63.072 41.5984 62.208 41.5984 61.536C41.5984 59.68 43.1664 58.752 46.3024 58.752C47.5824 58.752 48.4304 58.912 48.8464 59.232C49.3904 59.648 49.8704 60.48 50.2864 61.728C50.6064 62.752 51.4864 63.52 52.9264 64.032C53.5344 64.224 54.2064 64.32 54.9424 64.32C56.6384 64.32 57.8864 63.984 58.6864 63.312C59.4864 62.608 59.8864 61.824 59.8864 60.96C59.8864 60.096 59.4864 59.344 58.6864 58.704C57.9184 58.032 56.9904 57.696 55.9024 57.696C54.8464 57.696 54.1264 57.664 53.7424 57.6C53.3584 57.536 52.9424 57.376 52.4944 57.12C51.6304 56.704 51.1984 55.472 51.1984 53.424C51.1984 51.184 51.7904 49.856 52.9744 49.44C53.5184 49.28 54.3504 49.2 55.4704 49.2C57.9024 49.2 59.1184 48.576 59.1184 47.328C59.1184 46.656 58.7984 46.016 58.1584 45.408C57.5184 44.8 56.6224 44.496 55.4704 44.496C54.3504 44.496 53.4544 44.688 52.7824 45.072C52.1104 45.456 51.6944 45.84 51.5344 46.224L51.2464 46.8C50.5104 48.4 49.4544 49.2 48.0784 49.2C47.2784 49.2 46.3984 48.912 45.4384 48.336C43.8384 47.408 43.0384 46.336 43.0384 45.12C43.0384 44.608 43.4064 43.52 44.1424 41.856C44.2704 41.568 44.6224 41.072 45.1984 40.368C45.7744 39.632 46.4304 38.992 47.1664 38.448C47.9344 37.904 48.9904 37.408 50.3344 36.96C51.7104 36.512 53.2304 36.288 54.8944 36.288Z" fill="white"></path></svg>