<svg xmlns="http://www.w3.org/2000/svg" width="129" height="111" viewBox="0 0 129 111" fill="none"><path fill-rule="evenodd" clip-rule="evenodd" d="M89.5068 0.000516146C110.717 0.000516146 129 16.0304 129 37.1827C129 69.8568 122.27 111 89.5068 111C44.1483 111 0 82.4175 0 37.1827C0 -0.579858 51.6409 0.000516146 89.5068 0.000516146Z" fill="#FEE400"></path><path d="M74.663 61.552C75.975 61.552 76.903 61.712 77.447 62.032C78.023 62.32 78.407 62.784 78.599 63.424C78.791 64.032 78.887 64.848 78.887 65.872C78.887 66.864 78.775 67.664 78.551 68.272C78.359 68.88 78.023 69.296 77.543 69.52C76.839 69.904 75.847 70.096 74.567 70.096H55.799C54.647 70.096 53.655 69.664 52.823 68.8C51.991 67.936 51.575 66.928 51.575 65.776C51.575 64.048 52.167 62.464 53.351 61.024C54.567 59.552 56.023 58.304 57.719 57.28C59.415 56.224 61.111 55.2 62.807 54.208C64.503 53.184 65.943 52.032 67.127 50.752C68.343 49.472 68.951 48.112 68.951 46.672C68.951 46.384 68.839 45.984 68.615 45.472C68.391 44.928 68.135 44.496 67.847 44.176C67.591 43.824 67.175 43.504 66.599 43.216C66.023 42.928 65.223 42.784 64.199 42.784C63.175 42.784 62.279 43.168 61.511 43.936C60.775 44.672 60.359 45.408 60.263 46.144L60.071 47.248V47.536C60.071 48.24 60.039 48.768 59.975 49.12C59.943 49.472 59.799 49.872 59.543 50.32C59.063 51.088 57.815 51.472 55.799 51.472C53.559 51.472 52.231 50.864 51.815 49.648C51.655 49.136 51.575 48.32 51.575 47.2C51.575 43.872 52.759 40.896 55.127 38.272C57.527 35.616 60.647 34.288 64.487 34.288C68.359 34.288 71.495 35.632 73.895 38.32C76.295 40.976 77.495 44.016 77.495 47.44C77.495 49.264 77.095 50.992 76.295 52.624C75.495 54.256 74.535 55.568 73.415 56.56C71.047 58.672 68.935 60.096 67.079 60.832L65.879 61.312V61.552H74.663Z" fill="white"></path></svg>